<svg width="108" height="24" viewBox="0 0 108 24" fill="none" xmlns="http://www.w3.org/2000/svg">
<path d="M0.924 10L0.924 2.776H1.6905V10H0.924ZM1.428 10V9.2965H5.6805V10H1.428ZM1.428 6.64V5.9575H5.3445V6.64H1.428ZM1.428 3.4795V2.776H5.6175V3.4795H1.428ZM8.78005 10L5.90305 2.776H6.74305L9.23155 9.1495H8.92705L11.4366 2.776H12.2556L9.35755 10H8.78005ZM13.04 10V2.776H13.8065V10H13.04ZM13.544 10V9.2965H17.7965V10H13.544ZM13.544 6.64V5.9575H17.4605V6.64H13.544ZM13.544 3.4795V2.776H17.7335V3.4795H13.544ZM19.1916 6.766V6.115H21.2916C21.7676 6.115 22.1316 5.996 22.3836 5.758C22.6356 5.513 22.7616 5.1875 22.7616 4.7815C22.7616 4.3895 22.6356 4.071 22.3836 3.826C22.1316 3.574 21.7676 3.448 21.2916 3.448H19.1916V2.776H21.2916C21.7606 2.776 22.1631 2.8635 22.4991 3.0385C22.8351 3.2065 23.0906 3.441 23.2656 3.742C23.4476 4.043 23.5386 4.386 23.5386 4.771C23.5386 5.17 23.4476 5.52 23.2656 5.821C23.0906 6.122 22.8351 6.3565 22.4991 6.5245C22.1631 6.6855 21.7606 6.766 21.2916 6.766H19.1916ZM18.6981 10V2.776H19.4646V10H18.6981ZM23.0661 10L20.3571 6.661L21.1026 6.4195L24.0531 10H23.0661ZM26.4919 7.018L23.6254 2.776L24.5284 2.776L26.9119 6.3355H26.5339L28.9384 2.776H29.8099L26.9224 7.018H26.4919ZM26.3344 10V6.4615H27.1114V10H26.3344ZM32.4843 10V9.286H34.6053C35.1723 9.286 35.6728 9.1635 36.1068 8.9185C36.5408 8.6665 36.8803 8.3235 37.1253 7.8895C37.3703 7.4485 37.4928 6.9445 37.4928 6.3775C37.4928 5.8105 37.3703 5.31 37.1253 4.876C36.8803 4.442 36.5408 4.1025 36.1068 3.8575C35.6728 3.6055 35.1723 3.4795 34.6053 3.4795H32.5053V2.776H34.6263C35.1513 2.776 35.6343 2.867 36.0753 3.049C36.5233 3.224 36.9118 3.476 37.2408 3.805C37.5768 4.127 37.8358 4.5085 38.0178 4.9495C38.1998 5.3835 38.2908 5.863 38.2908 6.388C38.2908 6.899 38.1998 7.375 38.0178 7.816C37.8358 8.257 37.5803 8.642 37.2513 8.971C36.9223 9.293 36.5338 9.545 36.0858 9.727C35.6448 9.909 35.1653 10 34.6473 10H32.4843ZM32.0118 10V2.776H32.7783V10H32.0118ZM39.249 10V2.776H40.0155V10H39.249ZM39.753 10V9.2965H44.0055V10H39.753ZM39.753 6.64V5.9575H43.6695V6.64H39.753ZM39.753 3.4795V2.776H43.9425V3.4795H39.753ZM46.6152 10V2.9755H47.3922V10H46.6152ZM44.0742 3.4795V2.776H49.9332V3.4795H44.0742ZM49.0658 10L52.0268 2.776H52.6043L55.5338 10H54.7043L52.1528 3.616H52.4573L49.8848 10H49.0658ZM50.4203 8.1205V7.438H54.2003V8.1205H50.4203ZM56.2438 10V2.776H57.0103V10H56.2438ZM58.3336 10V2.776H59.1001V10H58.3336ZM58.8376 10V9.2965H62.8171V10H58.8376ZM65.2714 10V2.776H65.8174L68.9359 7.8895H68.5474L71.6659 2.776H72.2119V10H71.4349V4.12L71.6134 4.162L69.0094 8.4355H68.4634L65.8594 4.162L66.0379 4.12V10H65.2714ZM72.9882 10L75.9492 2.776H76.5267L79.4562 10H78.6267L76.0752 3.616H76.3797L73.8072 10H72.9882ZM74.3427 8.1205V7.438H78.1227V8.1205H74.3427ZM81.136 10V2.9755H81.913V10H81.136ZM78.595 3.4795V2.776H84.454V3.4795H78.595ZM86.7224 10V2.9755H87.4994V10H86.7224ZM84.1814 3.4795V2.776H90.0404V3.4795H84.1814ZM90.8261 10V2.776H91.5926V10H90.8261ZM91.3301 10V9.2965H95.5826V10H91.3301ZM91.3301 6.64V5.9575H95.2466V6.64H91.3301ZM91.3301 3.4795V2.776H95.5196V3.4795H91.3301ZM96.9778 6.766V6.115H99.0778C99.5538 6.115 99.9178 5.996 100.17 5.758C100.422 5.513 100.548 5.1875 100.548 4.7815C100.548 4.3895 100.422 4.071 100.17 3.826C99.9178 3.574 99.5538 3.448 99.0778 3.448H96.9778V2.776H99.0778C99.5468 2.776 99.9493 2.8635 100.285 3.0385C100.621 3.2065 100.877 3.441 101.052 3.742C101.234 4.043 101.325 4.386 101.325 4.771C101.325 5.17 101.234 5.52 101.052 5.821C100.877 6.122 100.621 6.3565 100.285 6.5245C99.9493 6.6855 99.5468 6.766 99.0778 6.766H96.9778ZM96.4843 10V2.776H97.2508V10L96.4843 10ZM100.852 10L98.1433 6.661L98.8888 6.4195L101.839 10H100.852ZM104.219 10.105C103.659 10.105 103.176 10 102.77 9.79C102.364 9.573 102.007 9.272 101.699 8.887L102.235 8.362C102.48 8.705 102.763 8.9605 103.085 9.1285C103.414 9.2965 103.803 9.3805 104.251 9.3805C104.713 9.3805 105.087 9.2755 105.374 9.0655C105.661 8.8555 105.805 8.565 105.805 8.194C105.805 7.907 105.738 7.6725 105.605 7.4905C105.472 7.3015 105.297 7.151 105.08 7.039C104.87 6.92 104.636 6.815 104.377 6.724C104.118 6.633 103.859 6.5385 103.6 6.4405C103.348 6.3355 103.113 6.206 102.896 6.052C102.679 5.898 102.504 5.702 102.371 5.464C102.245 5.226 102.182 4.9215 102.182 4.5505C102.182 4.1585 102.277 3.8225 102.466 3.5425C102.655 3.2625 102.914 3.049 103.243 2.902C103.572 2.748 103.946 2.671 104.366 2.671C104.835 2.671 105.252 2.762 105.616 2.944C105.987 3.126 106.295 3.371 106.54 3.679L106.015 4.204C105.791 3.938 105.546 3.735 105.28 3.595C105.014 3.455 104.702 3.385 104.345 3.385C103.925 3.385 103.589 3.483 103.337 3.679C103.085 3.875 102.959 4.148 102.959 4.498C102.959 4.771 103.022 4.9915 103.148 5.1595C103.281 5.3275 103.456 5.4675 103.673 5.5795C103.89 5.6915 104.125 5.793 104.377 5.884C104.636 5.968 104.895 6.0625 105.154 6.1675C105.413 6.2725 105.647 6.4055 105.857 6.5665C106.074 6.7275 106.249 6.934 106.382 7.186C106.515 7.431 106.582 7.746 106.582 8.131C106.582 8.754 106.368 9.2405 105.941 9.5905C105.521 9.9335 104.947 10.105 104.219 10.105Z" fill="white"/>
<path d="M0.924 14L0.924 21.224H1.6905V14H0.924ZM1.428 14V14.7035H5.6805V14H1.428ZM1.428 17.36V18.0425H5.3445V17.36H1.428ZM1.428 20.5205V21.224H5.6175V20.5205H1.428ZM8.78005 14L5.90305 21.224H6.74305L9.23155 14.8505H8.92705L11.4366 21.224H12.2556L9.35755 14H8.78005ZM13.04 14V21.224H13.8065V14H13.04ZM13.544 14V14.7035H17.7965V14H13.544ZM13.544 17.36V18.0425H17.4605V17.36H13.544ZM13.544 20.5205V21.224H17.7335V20.5205H13.544ZM19.1916 17.234V17.885H21.2916C21.7676 17.885 22.1316 18.004 22.3836 18.242C22.6356 18.487 22.7616 18.8125 22.7616 19.2185C22.7616 19.6105 22.6356 19.929 22.3836 20.174C22.1316 20.426 21.7676 20.552 21.2916 20.552H19.1916V21.224H21.2916C21.7606 21.224 22.1631 21.1365 22.4991 20.9615C22.8351 20.7935 23.0906 20.559 23.2656 20.258C23.4476 19.957 23.5386 19.614 23.5386 19.229C23.5386 18.83 23.4476 18.48 23.2656 18.179C23.0906 17.878 22.8351 17.6435 22.4991 17.4755C22.1631 17.3145 21.7606 17.234 21.2916 17.234H19.1916ZM18.6981 14V21.224H19.4646V14H18.6981ZM23.0661 14L20.3571 17.339L21.1026 17.5805L24.0531 14H23.0661ZM26.4919 16.982L23.6254 21.224H24.5284L26.9119 17.6645H26.5339L28.9384 21.224H29.8099L26.9224 16.982H26.4919ZM26.3344 14V17.5385H27.1114V14H26.3344ZM32.4843 14V14.714H34.6053C35.1723 14.714 35.6728 14.8365 36.1068 15.0815C36.5408 15.3335 36.8803 15.6765 37.1253 16.1105C37.3703 16.5515 37.4928 17.0555 37.4928 17.6225C37.4928 18.1895 37.3703 18.69 37.1253 19.124C36.8803 19.558 36.5408 19.8975 36.1068 20.1425C35.6728 20.3945 35.1723 20.5205 34.6053 20.5205H32.5053V21.224H34.6263C35.1513 21.224 35.6343 21.133 36.0753 20.951C36.5233 20.776 36.9118 20.524 37.2408 20.195C37.5768 19.873 37.8358 19.4915 38.0178 19.0505C38.1998 18.6165 38.2908 18.137 38.2908 17.612C38.2908 17.101 38.1998 16.625 38.0178 16.184C37.8358 15.743 37.5803 15.358 37.2513 15.029C36.9223 14.707 36.5338 14.455 36.0858 14.273C35.6448 14.091 35.1653 14 34.6473 14H32.4843ZM32.0118 14V21.224H32.7783V14H32.0118ZM39.249 14V21.224H40.0155V14H39.249ZM39.753 14V14.7035H44.0055V14H39.753ZM39.753 17.36V18.0425H43.6695V17.36H39.753ZM39.753 20.5205V21.224H43.9425V20.5205H39.753ZM46.6152 14V21.0245H47.3922V14H46.6152ZM44.0742 20.5205V21.224H49.9332V20.5205H44.0742ZM49.0658 14L52.0268 21.224H52.6043L55.5338 14H54.7043L52.1528 20.384H52.4573L49.8848 14H49.0658ZM50.4203 15.8795V16.562H54.2003V15.8795H50.4203ZM56.2438 14V21.224H57.0103V14H56.2438ZM58.3336 14V21.224H59.1001V14H58.3336ZM58.8376 14V14.7035H62.8171V14H58.8376ZM65.2714 14V21.224H65.8174L68.9359 16.1105H68.5474L71.6659 21.224H72.2119V14H71.4349V19.88L71.6134 19.838L69.0094 15.5645H68.4634L65.8594 19.838L66.0379 19.88V14H65.2714ZM72.9882 14L75.9492 21.224H76.5267L79.4562 14H78.6267L76.0752 20.384H76.3797L73.8072 14H72.9882ZM74.3427 15.8795V16.562H78.1227V15.8795H74.3427ZM81.136 14V21.0245H81.913V14H81.136ZM78.595 20.5205V21.224H84.454V20.5205H78.595ZM86.7224 14V21.0245H87.4994V14H86.7224ZM84.1814 20.5205V21.224H90.0404V20.5205H84.1814ZM90.8261 14V21.224H91.5926V14H90.8261ZM91.3301 14V14.7035H95.5826V14H91.3301ZM91.3301 17.36V18.0425H95.2466V17.36H91.3301ZM91.3301 20.5205V21.224H95.5196V20.5205H91.3301ZM96.9778 17.234V17.885H99.0778C99.5538 17.885 99.9178 18.004 100.17 18.242C100.422 18.487 100.548 18.8125 100.548 19.2185C100.548 19.6105 100.422 19.929 100.17 20.174C99.9178 20.426 99.5538 20.552 99.0778 20.552H96.9778V21.224H99.0778C99.5468 21.224 99.9493 21.1365 100.285 20.9615C100.621 20.7935 100.877 20.559 101.052 20.258C101.234 19.957 101.325 19.614 101.325 19.229C101.325 18.83 101.234 18.48 101.052 18.179C100.877 17.878 100.621 17.6435 100.285 17.4755C99.9493 17.3145 99.5468 17.234 99.0778 17.234H96.9778ZM96.4843 14V21.224H97.2508V14L96.4843 14ZM100.852 14L98.1433 17.339L98.8888 17.5805L101.839 14H100.852ZM104.219 13.895C103.659 13.895 103.176 14 102.77 14.21C102.364 14.427 102.007 14.728 101.699 15.113L102.235 15.638C102.48 15.295 102.763 15.0395 103.085 14.8715C103.414 14.7035 103.803 14.6195 104.251 14.6195C104.713 14.6195 105.087 14.7245 105.374 14.9345C105.661 15.1445 105.805 15.435 105.805 15.806C105.805 16.093 105.738 16.3275 105.605 16.5095C105.472 16.6985 105.297 16.849 105.08 16.961C104.87 17.08 104.636 17.185 104.377 17.276C104.118 17.367 103.859 17.4615 103.6 17.5595C103.348 17.6645 103.113 17.794 102.896 17.948C102.679 18.102 102.504 18.298 102.371 18.536C102.245 18.774 102.182 19.0785 102.182 19.4495C102.182 19.8415 102.277 20.1775 102.466 20.4575C102.655 20.7375 102.914 20.951 103.243 21.098C103.572 21.252 103.946 21.329 104.366 21.329C104.835 21.329 105.252 21.238 105.616 21.056C105.987 20.874 106.295 20.629 106.54 20.321L106.015 19.796C105.791 20.062 105.546 20.265 105.28 20.405C105.014 20.545 104.702 20.615 104.345 20.615C103.925 20.615 103.589 20.517 103.337 20.321C103.085 20.125 102.959 19.852 102.959 19.502C102.959 19.229 103.022 19.0085 103.148 18.8405C103.281 18.6725 103.456 18.5325 103.673 18.4205C103.89 18.3085 104.125 18.207 104.377 18.116C104.636 18.032 104.895 17.9375 105.154 17.8325C105.413 17.7275 105.647 17.5945 105.857 17.4335C106.074 17.2725 106.249 17.066 106.382 16.814C106.515 16.569 106.582 16.254 106.582 15.869C106.582 15.246 106.368 14.7595 105.941 14.4095C105.521 14.0665 104.947 13.895 104.219 13.895Z" fill="white"/>
</svg>
