<svg width="78" height="15" viewBox="0 0 78 15" fill="none" xmlns="http://www.w3.org/2000/svg">
<path d="M2.00006 9.06003V6.84003H5.26006C5.68673 6.84003 6.07339 6.75336 6.42006 6.58003C6.76673 6.4067 7.04006 6.16003 7.24006 5.84003C7.44006 5.5067 7.54006 5.1067 7.54006 4.64003C7.54006 4.1867 7.44006 3.79336 7.24006 3.46003C7.04006 3.1267 6.76673 2.87336 6.42006 2.70003C6.07339 2.5267 5.68673 2.44003 5.26006 2.44003H2.00006V0.220029H5.54006C6.43339 0.220029 7.23339 0.400029 7.94006 0.760028C8.66006 1.12003 9.22673 1.63336 9.64006 2.30003C10.0534 2.95336 10.2601 3.73336 10.2601 4.64003C10.2601 5.5467 10.0534 6.33336 9.64006 7.00003C9.22673 7.65336 8.66006 8.16003 7.94006 8.52003C7.23339 8.88003 6.43339 9.06003 5.54006 9.06003H2.00006ZM5.86808e-05 14.28V0.220029H2.72006V14.28H5.86808e-05ZM13.0476 14.28V11.86H16.6276C17.5342 11.86 18.3276 11.6734 19.0076 11.3C19.6876 10.9134 20.2142 10.3734 20.5876 9.68003C20.9742 8.9867 21.1676 8.1667 21.1676 7.22003C21.1676 6.30003 20.9742 5.50003 20.5876 4.82003C20.2009 4.1267 19.6676 3.59336 18.9876 3.22003C18.3076 2.83336 17.5209 2.64003 16.6276 2.64003H12.9876V0.220029H16.6676C17.7076 0.220029 18.6676 0.393362 19.5476 0.740028C20.4409 1.0867 21.2142 1.58003 21.8676 2.22003C22.5342 2.84669 23.0476 3.5867 23.4076 4.44003C23.7809 5.29336 23.9676 6.2267 23.9676 7.24003C23.9676 8.25336 23.7809 9.19336 23.4076 10.06C23.0476 10.9134 22.5409 11.66 21.8876 12.3C21.2342 12.9267 20.4609 13.4134 19.5676 13.76C18.6876 14.1067 17.7342 14.28 16.7076 14.28H13.0476ZM11.1876 14.28V0.220029H13.9076V14.28H11.1876ZM29.209 14.48C28.0756 14.48 27.1023 14.2867 26.289 13.9C25.489 13.5134 24.7623 12.9334 24.109 12.16L25.909 10.36C26.3223 10.9067 26.8023 11.3334 27.349 11.64C27.8956 11.9334 28.5623 12.08 29.349 12.08C30.0556 12.08 30.6156 11.94 31.029 11.66C31.4556 11.38 31.669 10.9934 31.669 10.5C31.669 10.0734 31.549 9.7267 31.309 9.46003C31.069 9.19336 30.749 8.9667 30.349 8.78003C29.9623 8.59336 29.529 8.4267 29.049 8.28003C28.5823 8.12003 28.109 7.94003 27.629 7.74003C27.1623 7.54003 26.729 7.29336 26.329 7.00003C25.9423 6.69336 25.629 6.3067 25.389 5.84003C25.149 5.36003 25.029 4.76003 25.029 4.04003C25.029 3.1867 25.2356 2.46003 25.649 1.86003C26.0623 1.26003 26.629 0.800029 27.349 0.480028C28.069 0.160028 28.8823 2.83718e-05 29.789 2.83718e-05C30.749 2.83718e-05 31.6156 0.180028 32.389 0.540029C33.1623 0.900029 33.7956 1.3667 34.289 1.94003L32.489 3.74003C32.0756 3.2867 31.649 2.95336 31.209 2.74003C30.7823 2.5267 30.2956 2.42003 29.749 2.42003C29.1223 2.42003 28.629 2.54003 28.269 2.78003C27.909 3.02003 27.729 3.3667 27.729 3.82003C27.729 4.2067 27.849 4.52003 28.089 4.76003C28.329 5.00003 28.6423 5.2067 29.029 5.38003C29.429 5.55336 29.8623 5.72003 30.329 5.88003C30.809 6.04003 31.2823 6.22003 31.749 6.42003C32.229 6.62003 32.6623 6.88003 33.049 7.20003C33.449 7.52003 33.769 7.93336 34.009 8.44003C34.249 8.93336 34.369 9.5467 34.369 10.28C34.369 11.5867 33.909 12.6134 32.989 13.36C32.069 14.1067 30.809 14.48 29.209 14.48ZM34.5957 12.72L39.8957 7.18003C40.269 6.78003 40.569 6.4267 40.7957 6.12003C41.0357 5.80003 41.209 5.50003 41.3157 5.22003C41.4224 4.9267 41.4757 4.63336 41.4757 4.34003C41.4757 3.75336 41.2824 3.29336 40.8957 2.96003C40.5224 2.6267 40.0357 2.46003 39.4357 2.46003C38.8224 2.46003 38.2757 2.62003 37.7957 2.94003C37.329 3.26003 36.889 3.7667 36.4757 4.46003L34.6157 2.88003C35.1757 1.93336 35.869 1.22003 36.6957 0.740028C37.5357 0.246695 38.4957 2.83718e-05 39.5757 2.83718e-05C40.4957 2.83718e-05 41.2957 0.180028 41.9757 0.540029C42.669 0.900029 43.2024 1.40003 43.5757 2.04003C43.949 2.68003 44.1357 3.4267 44.1357 4.28003C44.1357 4.85336 44.0624 5.37336 43.9157 5.84003C43.7824 6.3067 43.549 6.77336 43.2157 7.24003C42.8957 7.69336 42.449 8.2067 41.8757 8.78003L38.0157 12.72H34.5957ZM34.5957 14.28V12.72L36.9157 11.92H44.4357V14.28H34.5957ZM50.7704 14.48C49.6637 14.48 48.6637 14.18 47.7704 13.58C46.877 12.98 46.1637 12.1334 45.6304 11.04C45.1104 9.9467 44.8504 8.67336 44.8504 7.22003C44.8504 5.7667 45.1104 4.50003 45.6304 3.42003C46.1504 2.34003 46.8504 1.50003 47.7304 0.900029C48.6237 0.300028 49.617 2.83718e-05 50.7104 2.83718e-05C51.8304 2.83718e-05 52.8304 0.300028 53.7104 0.900029C54.6037 1.50003 55.3104 2.3467 55.8304 3.44003C56.3504 4.52003 56.6104 5.79336 56.6104 7.26003C56.6104 8.71336 56.3504 9.9867 55.8304 11.08C55.3104 12.16 54.6104 13 53.7304 13.6C52.8504 14.1867 51.8637 14.48 50.7704 14.48ZM50.7304 12.02C51.3704 12.02 51.9237 11.84 52.3904 11.48C52.857 11.12 53.217 10.5867 53.4704 9.88003C53.737 9.17336 53.8704 8.29336 53.8704 7.24003C53.8704 6.1867 53.737 5.3067 53.4704 4.60003C53.217 3.89336 52.8504 3.3667 52.3704 3.02003C51.9037 2.66003 51.3504 2.48003 50.7104 2.48003C50.0837 2.48003 49.537 2.66003 49.0704 3.02003C48.6037 3.3667 48.237 3.89336 47.9704 4.60003C47.717 5.29336 47.5904 6.1667 47.5904 7.22003C47.5904 8.2867 47.717 9.17336 47.9704 9.88003C48.237 10.5867 48.6037 11.12 49.0704 11.48C49.537 11.84 50.0904 12.02 50.7304 12.02ZM56.8535 12.72L62.1535 7.18003C62.5268 6.78003 62.8268 6.4267 63.0535 6.12003C63.2935 5.80003 63.4668 5.50003 63.5735 5.22003C63.6802 4.9267 63.7335 4.63336 63.7335 4.34003C63.7335 3.75336 63.5402 3.29336 63.1535 2.96003C62.7802 2.6267 62.2935 2.46003 61.6935 2.46003C61.0802 2.46003 60.5335 2.62003 60.0535 2.94003C59.5868 3.26003 59.1468 3.7667 58.7335 4.46003L56.8735 2.88003C57.4335 1.93336 58.1268 1.22003 58.9535 0.740028C59.7935 0.246695 60.7535 2.83718e-05 61.8335 2.83718e-05C62.7535 2.83718e-05 63.5535 0.180028 64.2335 0.540029C64.9268 0.900029 65.4602 1.40003 65.8335 2.04003C66.2068 2.68003 66.3935 3.4267 66.3935 4.28003C66.3935 4.85336 66.3202 5.37336 66.1735 5.84003C66.0402 6.3067 65.8068 6.77336 65.4735 7.24003C65.1535 7.69336 64.7068 8.2067 64.1335 8.78003L60.2735 12.72H56.8535ZM56.8535 14.28V12.72L59.1735 11.92H66.6935V14.28H56.8535ZM72.0682 14.48C71.1082 14.48 70.2415 14.2667 69.4682 13.84C68.7082 13.4 68.1015 12.8134 67.6482 12.08C67.2082 11.3334 66.9882 10.5067 66.9882 9.60003C66.9882 8.36003 67.4149 7.11336 68.2682 5.86003L72.1682 0.220029H75.2882L71.0282 6.18003L70.0282 6.46003C70.1749 6.15336 70.3482 5.8867 70.5482 5.66003C70.7615 5.43336 71.0349 5.26003 71.3682 5.14003C71.7015 5.02003 72.1215 4.96003 72.6282 4.96003C73.4682 4.96003 74.2282 5.16003 74.9082 5.56003C75.5882 5.9467 76.1349 6.4867 76.5482 7.18003C76.9615 7.86003 77.1682 8.6467 77.1682 9.54003C77.1682 10.46 76.9415 11.2934 76.4882 12.04C76.0349 12.7867 75.4215 13.38 74.6482 13.82C73.8749 14.26 73.0149 14.48 72.0682 14.48ZM72.0682 12.04C72.5349 12.04 72.9482 11.9334 73.3082 11.72C73.6682 11.4934 73.9549 11.1934 74.1682 10.82C74.3815 10.4334 74.4882 10 74.4882 9.52003C74.4882 9.04003 74.3815 8.61336 74.1682 8.24003C73.9549 7.85336 73.6682 7.55336 73.3082 7.34003C72.9482 7.1267 72.5349 7.02003 72.0682 7.02003C71.6015 7.02003 71.1815 7.13336 70.8082 7.36003C70.4482 7.57336 70.1615 7.8667 69.9482 8.24003C69.7482 8.61336 69.6482 9.04003 69.6482 9.52003C69.6482 10 69.7482 10.4334 69.9482 10.82C70.1615 11.1934 70.4482 11.4934 70.8082 11.72C71.1815 11.9334 71.6015 12.04 72.0682 12.04Z" fill="white"/>
</svg>
