<svg width="58" height="11" viewBox="0 0 58 11" fill="none" xmlns="http://www.w3.org/2000/svg">
<path d="M1.49992 6.79502V5.13002H3.94492C4.26492 5.13002 4.55492 5.06502 4.81492 4.93502C5.07492 4.80502 5.27992 4.62002 5.42992 4.38002C5.57992 4.13002 5.65492 3.83002 5.65492 3.48002C5.65492 3.14002 5.57992 2.84502 5.42992 2.59502C5.27992 2.34502 5.07492 2.15502 4.81492 2.02502C4.55492 1.89502 4.26492 1.83002 3.94492 1.83002H1.49992V0.165022H4.15492C4.82492 0.165022 5.42492 0.300022 5.95492 0.570021C6.49492 0.840021 6.91992 1.22502 7.22992 1.72502C7.53992 2.21502 7.69492 2.80002 7.69492 3.48002C7.69492 4.16002 7.53992 4.75002 7.22992 5.25002C6.91992 5.74002 6.49492 6.12002 5.95492 6.39002C5.42492 6.66002 4.82492 6.79502 4.15492 6.79502H1.49992ZM-7.80597e-05 10.71V0.165022H2.03992V10.71H-7.80597e-05ZM9.78555 10.71V8.89502H12.4705C13.1505 8.89502 13.7455 8.75502 14.2555 8.47502C14.7655 8.18502 15.1605 7.78002 15.4405 7.26002C15.7305 6.74002 15.8755 6.12502 15.8755 5.41502C15.8755 4.72502 15.7305 4.12502 15.4405 3.61502C15.1505 3.09502 14.7505 2.69502 14.2405 2.41502C13.7305 2.12502 13.1405 1.98002 12.4705 1.98002H9.74055V0.165022H12.5005C13.2805 0.165022 14.0005 0.295022 14.6605 0.555021C15.3305 0.815022 15.9105 1.18502 16.4005 1.66502C16.9005 2.13502 17.2855 2.69002 17.5555 3.33002C17.8355 3.97002 17.9755 4.67002 17.9755 5.43002C17.9755 6.19002 17.8355 6.89502 17.5555 7.54502C17.2855 8.18502 16.9055 8.74502 16.4155 9.22502C15.9255 9.69502 15.3455 10.06 14.6755 10.32C14.0155 10.58 13.3005 10.71 12.5305 10.71H9.78555ZM8.39055 10.71V0.165022H10.4305V10.71H8.39055ZM21.9066 10.86C21.0566 10.86 20.3266 10.715 19.7166 10.425C19.1166 10.135 18.5716 9.70002 18.0816 9.12002L19.4316 7.77002C19.7416 8.18002 20.1016 8.50002 20.5116 8.73002C20.9216 8.95002 21.4216 9.06002 22.0116 9.06002C22.5416 9.06002 22.9616 8.95502 23.2716 8.74502C23.5916 8.53502 23.7516 8.24502 23.7516 7.87502C23.7516 7.55502 23.6616 7.29502 23.4816 7.09502C23.3016 6.89502 23.0616 6.72502 22.7616 6.58502C22.4716 6.44502 22.1466 6.32002 21.7866 6.21002C21.4366 6.09002 21.0816 5.95502 20.7216 5.80502C20.3716 5.65502 20.0466 5.47002 19.7466 5.25002C19.4566 5.02002 19.2216 4.73002 19.0416 4.38002C18.8616 4.02002 18.7716 3.57002 18.7716 3.03002C18.7716 2.39002 18.9266 1.84502 19.2366 1.39502C19.5466 0.945022 19.9716 0.600022 20.5116 0.360021C21.0516 0.120021 21.6616 2.12789e-05 22.3416 2.12789e-05C23.0616 2.12789e-05 23.7116 0.135021 24.2916 0.405021C24.8716 0.675022 25.3466 1.02502 25.7166 1.45502L24.3666 2.80502C24.0566 2.46502 23.7366 2.21502 23.4066 2.05502C23.0866 1.89502 22.7216 1.81502 22.3116 1.81502C21.8416 1.81502 21.4716 1.90502 21.2016 2.08502C20.9316 2.26502 20.7966 2.52502 20.7966 2.86502C20.7966 3.15502 20.8866 3.39002 21.0666 3.57002C21.2466 3.75002 21.4816 3.90502 21.7716 4.03502C22.0716 4.16502 22.3966 4.29002 22.7466 4.41002C23.1066 4.53002 23.4616 4.66502 23.8116 4.81502C24.1716 4.96502 24.4966 5.16002 24.7866 5.40002C25.0866 5.64002 25.3266 5.95002 25.5066 6.33002C25.6866 6.70002 25.7766 7.16002 25.7766 7.71002C25.7766 8.69002 25.4316 9.46002 24.7416 10.02C24.0516 10.58 23.1066 10.86 21.9066 10.86ZM25.9466 9.54002L29.9216 5.38502C30.2016 5.08502 30.4266 4.82002 30.5966 4.59002C30.7766 4.35002 30.9066 4.12502 30.9866 3.91502C31.0666 3.69502 31.1066 3.47502 31.1066 3.25502C31.1066 2.81502 30.9616 2.47002 30.6716 2.22002C30.3916 1.97002 30.0266 1.84502 29.5766 1.84502C29.1166 1.84502 28.7066 1.96502 28.3466 2.20502C27.9966 2.44502 27.6666 2.82502 27.3566 3.34502L25.9616 2.16002C26.3816 1.45002 26.9016 0.915021 27.5216 0.555021C28.1516 0.185021 28.8716 2.12789e-05 29.6816 2.12789e-05C30.3716 2.12789e-05 30.9716 0.135021 31.4816 0.405021C32.0016 0.675022 32.4016 1.05002 32.6816 1.53002C32.9616 2.01002 33.1016 2.57002 33.1016 3.21002C33.1016 3.64002 33.0466 4.03002 32.9366 4.38002C32.8366 4.73002 32.6616 5.08002 32.4116 5.43002C32.1716 5.77002 31.8366 6.15502 31.4066 6.58502L28.5116 9.54002H25.9466ZM25.9466 10.71V9.54002L27.6866 8.94002H33.3266V10.71H25.9466ZM38.0777 10.86C37.2477 10.86 36.4977 10.635 35.8277 10.185C35.1577 9.73502 34.6227 9.10002 34.2227 8.28002C33.8327 7.46002 33.6377 6.50502 33.6377 5.41502C33.6377 4.32502 33.8327 3.37502 34.2227 2.56502C34.6127 1.75502 35.1377 1.12502 35.7977 0.675022C36.4677 0.225021 37.2127 2.12789e-05 38.0327 2.12789e-05C38.8727 2.12789e-05 39.6227 0.225021 40.2827 0.675022C40.9527 1.12502 41.4827 1.76002 41.8727 2.58002C42.2627 3.39002 42.4577 4.34502 42.4577 5.44502C42.4577 6.53502 42.2627 7.49002 41.8727 8.31002C41.4827 9.12002 40.9577 9.75002 40.2977 10.2C39.6377 10.64 38.8977 10.86 38.0777 10.86ZM38.0477 9.01502C38.5277 9.01502 38.9427 8.88002 39.2927 8.61002C39.6427 8.34002 39.9127 7.94002 40.1027 7.41002C40.3027 6.88002 40.4027 6.22002 40.4027 5.43002C40.4027 4.64002 40.3027 3.98002 40.1027 3.45002C39.9127 2.92002 39.6377 2.52502 39.2777 2.26502C38.9277 1.99502 38.5127 1.86002 38.0327 1.86002C37.5627 1.86002 37.1527 1.99502 36.8027 2.26502C36.4527 2.52502 36.1777 2.92002 35.9777 3.45002C35.7877 3.97002 35.6927 4.62502 35.6927 5.41502C35.6927 6.21502 35.7877 6.88002 35.9777 7.41002C36.1777 7.94002 36.4527 8.34002 36.8027 8.61002C37.1527 8.88002 37.5677 9.01502 38.0477 9.01502ZM42.64 9.54002L46.615 5.38502C46.895 5.08502 47.12 4.82002 47.29 4.59002C47.47 4.35002 47.6 4.12502 47.68 3.91502C47.76 3.69502 47.8 3.47502 47.8 3.25502C47.8 2.81502 47.655 2.47002 47.365 2.22002C47.085 1.97002 46.72 1.84502 46.27 1.84502C45.81 1.84502 45.4 1.96502 45.04 2.20502C44.69 2.44502 44.36 2.82502 44.05 3.34502L42.655 2.16002C43.075 1.45002 43.595 0.915021 44.215 0.555021C44.845 0.185021 45.565 2.12789e-05 46.375 2.12789e-05C47.065 2.12789e-05 47.665 0.135021 48.175 0.405021C48.695 0.675022 49.095 1.05002 49.375 1.53002C49.655 2.01002 49.795 2.57002 49.795 3.21002C49.795 3.64002 49.74 4.03002 49.63 4.38002C49.53 4.73002 49.355 5.08002 49.105 5.43002C48.865 5.77002 48.53 6.15502 48.1 6.58502L45.205 9.54002H42.64ZM42.64 10.71V9.54002L44.38 8.94002H50.02V10.71H42.64ZM54.051 10.86C53.331 10.86 52.681 10.7 52.101 10.38C51.531 10.05 51.076 9.61002 50.736 9.06002C50.406 8.50002 50.241 7.88002 50.241 7.20002C50.241 6.27002 50.561 5.33502 51.201 4.39502L54.126 0.165022H56.466L53.271 4.63502L52.521 4.84502C52.631 4.61502 52.761 4.41502 52.911 4.24502C53.071 4.07502 53.276 3.94502 53.526 3.85502C53.776 3.76502 54.091 3.72002 54.471 3.72002C55.101 3.72002 55.671 3.87002 56.181 4.17002C56.691 4.46002 57.101 4.86502 57.411 5.38502C57.721 5.89502 57.876 6.48502 57.876 7.15502C57.876 7.84502 57.706 8.47002 57.366 9.03002C57.026 9.59002 56.566 10.035 55.986 10.365C55.406 10.695 54.761 10.86 54.051 10.86ZM54.051 9.03002C54.401 9.03002 54.711 8.95002 54.981 8.79002C55.251 8.62002 55.466 8.39502 55.626 8.11502C55.786 7.82502 55.866 7.50002 55.866 7.14002C55.866 6.78002 55.786 6.46002 55.626 6.18002C55.466 5.89002 55.251 5.66502 54.981 5.50502C54.711 5.34502 54.401 5.26502 54.051 5.26502C53.701 5.26502 53.386 5.35002 53.106 5.52002C52.836 5.68002 52.621 5.90002 52.461 6.18002C52.311 6.46002 52.236 6.78002 52.236 7.14002C52.236 7.50002 52.311 7.82502 52.461 8.11502C52.621 8.39502 52.836 8.62002 53.106 8.79002C53.386 8.95002 53.701 9.03002 54.051 9.03002Z" fill="white"/>
</svg>
