<svg width="7" height="29" viewBox="0 0 7 29" fill="none" xmlns="http://www.w3.org/2000/svg">
<path d="M3.59253 7.04297V5.34229C3.59253 5.19287 3.64746 5.06543 3.75732 4.95996C3.86719 4.85449 4.00122 4.80176 4.15942 4.80176C4.30884 4.80176 4.43628 4.85449 4.54175 4.95996C4.64722 5.06543 4.69995 5.19287 4.69995 5.34229V7.04297H6.40063C6.55444 7.04297 6.68628 7.0979 6.79614 7.20776C6.9104 7.31323 6.96753 7.44287 6.96753 7.59668C6.96753 7.75049 6.9104 7.88232 6.79614 7.99219C6.68628 8.09766 6.55444 8.15039 6.40063 8.15039H4.71313V9.85107C4.71313 10.0093 4.65601 10.1433 4.54175 10.2532C4.43188 10.363 4.30005 10.418 4.14624 10.418C3.99243 10.418 3.8606 10.363 3.75073 10.2532C3.64526 10.1433 3.59253 10.0093 3.59253 9.85107V8.15039H1.89185C1.74243 8.15039 1.61279 8.09766 1.50293 7.99219C1.39307 7.88232 1.33813 7.75049 1.33813 7.59668C1.33813 7.44727 1.39307 7.31763 1.50293 7.20776C1.61279 7.0979 1.74243 7.04297 1.89185 7.04297H3.59253Z" fill="white"/>
<path d="M3.59253 25.0874V23.3867C3.59253 23.2373 3.64746 23.1099 3.75732 23.0044C3.86719 22.8989 4.00122 22.8462 4.15942 22.8462C4.30884 22.8462 4.43628 22.8989 4.54175 23.0044C4.64722 23.1099 4.69995 23.2373 4.69995 23.3867V25.0874H6.40063C6.55444 25.0874 6.68628 25.1423 6.79614 25.2522C6.9104 25.3577 6.96753 25.4873 6.96753 25.6411C6.96753 25.7949 6.9104 25.9268 6.79614 26.0366C6.68628 26.1421 6.55444 26.1948 6.40063 26.1948H4.71313V27.8955C4.71313 28.0537 4.65601 28.1877 4.54175 28.2976C4.43188 28.4075 4.30005 28.4624 4.14624 28.4624C3.99243 28.4624 3.8606 28.4075 3.75073 28.2976C3.64526 28.1877 3.59253 28.0537 3.59253 27.8955V26.1948H1.89185C1.74243 26.1948 1.61279 26.1421 1.50293 26.0366C1.39307 25.9268 1.33813 25.7949 1.33813 25.6411C1.33813 25.4917 1.39307 25.3621 1.50293 25.2522C1.61279 25.1423 1.74243 25.0874 1.89185 25.0874H3.59253Z" fill="white"/>
</svg>
