<svg width="7" height="38" viewBox="0 0 7 38" fill="none" xmlns="http://www.w3.org/2000/svg">
<path d="M3.59253 7.04297V5.34229C3.59253 5.19287 3.64746 5.06543 3.75732 4.95996C3.86719 4.85449 4.00122 4.80176 4.15942 4.80176C4.30884 4.80176 4.43628 4.85449 4.54175 4.95996C4.64722 5.06543 4.69995 5.19287 4.69995 5.34229V7.04297H6.40063C6.55444 7.04297 6.68628 7.0979 6.79614 7.20776C6.9104 7.31323 6.96753 7.44287 6.96753 7.59668C6.96753 7.75049 6.9104 7.88232 6.79614 7.99219C6.68628 8.09766 6.55444 8.15039 6.40063 8.15039H4.71313V9.85107C4.71313 10.0093 4.65601 10.1433 4.54175 10.2532C4.43188 10.363 4.30005 10.418 4.14624 10.418C3.99243 10.418 3.8606 10.363 3.75073 10.2532C3.64526 10.1433 3.59253 10.0093 3.59253 9.85107V8.15039H1.89185C1.74243 8.15039 1.61279 8.09766 1.50293 7.99219C1.39307 7.88232 1.33813 7.75049 1.33813 7.59668C1.33813 7.44727 1.39307 7.31763 1.50293 7.20776C1.61279 7.0979 1.74243 7.04297 1.89185 7.04297H3.59253Z" fill="white"/>
<path d="M3.59253 32.9153V31.2147C3.59253 31.0652 3.64746 30.9378 3.75732 30.8323C3.86719 30.7269 4.00122 30.6741 4.15942 30.6741C4.30884 30.6741 4.43628 30.7269 4.54175 30.8323C4.64722 30.9378 4.69995 31.0652 4.69995 31.2147V32.9153H6.40063C6.55444 32.9153 6.68628 32.9703 6.79614 33.0801C6.9104 33.1856 6.96753 33.3152 6.96753 33.4691C6.96753 33.6229 6.9104 33.7547 6.79614 33.8646C6.68628 33.97 6.55444 34.0228 6.40063 34.0228H4.71313V35.7234C4.71313 35.8817 4.65601 36.0157 4.54175 36.1255C4.43188 36.2354 4.30005 36.2903 4.14624 36.2903C3.99243 36.2903 3.8606 36.2354 3.75073 36.1255C3.64526 36.0157 3.59253 35.8817 3.59253 35.7234V34.0228H1.89185C1.74243 34.0228 1.61279 33.97 1.50293 33.8646C1.39307 33.7547 1.33813 33.6229 1.33813 33.4691C1.33813 33.3196 1.39307 33.19 1.50293 33.0801C1.61279 32.9703 1.74243 32.9153 1.89185 32.9153H3.59253Z" fill="white"/>
</svg>
