<svg width="9" height="9" viewBox="0 0 9 9" fill="none" xmlns="http://www.w3.org/2000/svg">
<path d="M3.33984 3.32031V0.800781C3.33984 0.579427 3.42122 0.390625 3.58398 0.234375C3.74674 0.078125 3.94531 0 4.17969 0C4.40104 0 4.58984 0.078125 4.74609 0.234375C4.90234 0.390625 4.98047 0.579427 4.98047 0.800781V3.32031H7.5C7.72786 3.32031 7.92318 3.40169 8.08594 3.56445C8.25521 3.7207 8.33984 3.91276 8.33984 4.14062C8.33984 4.36849 8.25521 4.5638 8.08594 4.72656C7.92318 4.88281 7.72786 4.96094 7.5 4.96094H5V7.48047C5 7.71484 4.91536 7.91341 4.74609 8.07617C4.58333 8.23893 4.38802 8.32031 4.16016 8.32031C3.93229 8.32031 3.73698 8.23893 3.57422 8.07617C3.41797 7.91341 3.33984 7.71484 3.33984 7.48047V4.96094H0.820312C0.598958 4.96094 0.406901 4.88281 0.244141 4.72656C0.0813802 4.5638 0 4.36849 0 4.14062C0 3.91927 0.0813802 3.72721 0.244141 3.56445C0.406901 3.40169 0.598958 3.32031 0.820312 3.32031H3.33984Z" fill="white"/>
</svg>
