<svg width="12" height="47" viewBox="0 0 12 47" fill="none" xmlns="http://www.w3.org/2000/svg">
<path d="M5.32227 9.65625V7.13672C5.32227 6.91536 5.40365 6.72656 5.56641 6.57031C5.72917 6.41406 5.92773 6.33594 6.16211 6.33594C6.38346 6.33594 6.57227 6.41406 6.72852 6.57031C6.88477 6.72656 6.96289 6.91536 6.96289 7.13672V9.65625H9.48242C9.71029 9.65625 9.9056 9.73763 10.0684 9.90039C10.2376 10.0566 10.3223 10.2487 10.3223 10.4766C10.3223 10.7044 10.2376 10.8997 10.0684 11.0625C9.9056 11.2188 9.71029 11.2969 9.48242 11.2969H6.98242V13.8164C6.98242 14.0508 6.89779 14.2493 6.72852 14.4121C6.56576 14.5749 6.37044 14.6562 6.14258 14.6562C5.91471 14.6562 5.7194 14.5749 5.55664 14.4121C5.40039 14.2493 5.32227 14.0508 5.32227 13.8164V11.2969H2.80273C2.58138 11.2969 2.38932 11.2188 2.22656 11.0625C2.0638 10.8997 1.98242 10.7044 1.98242 10.4766C1.98242 10.2552 2.0638 10.0632 2.22656 9.90039C2.38932 9.73763 2.58138 9.65625 2.80273 9.65625H5.32227Z" fill="white"/>
<path d="M5.32227 41.6562V39.1367C5.32227 38.9154 5.40365 38.7266 5.56641 38.5703C5.72917 38.4141 5.92773 38.3359 6.16211 38.3359C6.38346 38.3359 6.57227 38.4141 6.72852 38.5703C6.88477 38.7266 6.96289 38.9154 6.96289 39.1367V41.6562H9.48242C9.71029 41.6562 9.9056 41.7376 10.0684 41.9004C10.2376 42.0566 10.3223 42.2487 10.3223 42.4766C10.3223 42.7044 10.2376 42.8997 10.0684 43.0625C9.9056 43.2188 9.71029 43.2969 9.48242 43.2969H6.98242V45.8164C6.98242 46.0508 6.89779 46.2493 6.72852 46.4121C6.56576 46.5749 6.37044 46.6562 6.14258 46.6562C5.91471 46.6562 5.7194 46.5749 5.55664 46.4121C5.40039 46.2493 5.32227 46.0508 5.32227 45.8164V43.2969H2.80273C2.58138 43.2969 2.38932 43.2188 2.22656 43.0625C2.0638 42.8997 1.98242 42.7044 1.98242 42.4766C1.98242 42.2552 2.0638 42.0632 2.22656 41.9004C2.38932 41.7376 2.58138 41.6562 2.80273 41.6562H5.32227Z" fill="white"/>
</svg>
