<svg width="6" height="6" viewBox="0 0 6 6" fill="none" xmlns="http://www.w3.org/2000/svg">
<path d="M2.25439 2.24121V0.540527C2.25439 0.391113 2.30933 0.263672 2.41919 0.158203C2.52905 0.0527344 2.66309 0 2.82129 0C2.9707 0 3.09814 0.0527344 3.20361 0.158203C3.30908 0.263672 3.36182 0.391113 3.36182 0.540527V2.24121H5.0625C5.21631 2.24121 5.34814 2.29614 5.45801 2.40601C5.57227 2.51147 5.62939 2.64111 5.62939 2.79492C5.62939 2.94873 5.57227 3.08057 5.45801 3.19043C5.34814 3.2959 5.21631 3.34863 5.0625 3.34863H3.375V5.04932C3.375 5.20752 3.31787 5.34155 3.20361 5.45142C3.09375 5.56128 2.96191 5.61621 2.80811 5.61621C2.6543 5.61621 2.52246 5.56128 2.4126 5.45142C2.30713 5.34155 2.25439 5.20752 2.25439 5.04932V3.34863H0.553711C0.404297 3.34863 0.274658 3.2959 0.164795 3.19043C0.0549316 3.08057 0 2.94873 0 2.79492C0 2.64551 0.0549316 2.51587 0.164795 2.40601C0.274658 2.29614 0.404297 2.24121 0.553711 2.24121H2.25439Z" fill="white"/>
</svg>
