<svg width="154" height="34" viewBox="0 0 154 34" fill="none" xmlns="http://www.w3.org/2000/svg">
<path d="M1.32 15L1.32 4.68H2.415V15H1.32ZM2.04 15V13.995H8.115V15H2.04ZM2.04 10.2V9.225H7.635V10.2H2.04ZM2.04 5.685V4.68H8.025V5.685H2.04ZM12.5429 15L8.43293 4.68H9.63293L13.1879 13.785H12.7529L16.3379 4.68H17.5079L13.3679 15H12.5429ZM18.6286 15V4.68H19.7236V15H18.6286ZM19.3486 15V13.995H25.4236V15H19.3486ZM19.3486 10.2V9.225H24.9436V10.2H19.3486ZM19.3486 5.685V4.68H25.3336V5.685H19.3486ZM27.4166 10.38V9.45H30.4166C31.0966 9.45 31.6166 9.28 31.9766 8.94C32.3366 8.59 32.5166 8.125 32.5166 7.545C32.5166 6.985 32.3366 6.53 31.9766 6.18C31.6166 5.82 31.0966 5.64 30.4166 5.64H27.4166V4.68H30.4166C31.0866 4.68 31.6616 4.805 32.1416 5.055C32.6216 5.295 32.9866 5.63 33.2366 6.06C33.4966 6.49 33.6266 6.98 33.6266 7.53C33.6266 8.1 33.4966 8.6 33.2366 9.03C32.9866 9.46 32.6216 9.795 32.1416 10.035C31.6616 10.265 31.0866 10.38 30.4166 10.38H27.4166ZM26.7116 15V4.68H27.8066V15H26.7116ZM32.9516 15L29.0816 10.23L30.1466 9.885L34.3616 15H32.9516ZM37.8602 10.74L33.7652 4.68H35.0552L38.4602 9.765H37.9202L41.3552 4.68H42.6002L38.4752 10.74H37.8602ZM37.6352 15V9.945H38.7452V15H37.6352ZM46.4208 15V13.98H49.4508C50.2608 13.98 50.9758 13.805 51.5958 13.455C52.2158 13.095 52.7008 12.605 53.0508 11.985C53.4008 11.355 53.5758 10.635 53.5758 9.825C53.5758 9.015 53.4008 8.3 53.0508 7.68C52.7008 7.06 52.2158 6.575 51.5958 6.225C50.9758 5.865 50.2608 5.685 49.4508 5.685L46.4508 5.685V4.68L49.4808 4.68C50.2308 4.68 50.9208 4.81 51.5508 5.07C52.1908 5.32 52.7458 5.68 53.2158 6.15C53.6958 6.61 54.0658 7.155 54.3258 7.785C54.5858 8.405 54.7158 9.09 54.7158 9.84C54.7158 10.57 54.5858 11.25 54.3258 11.88C54.0658 12.51 53.7008 13.06 53.2308 13.53C52.7608 13.99 52.2058 14.35 51.5658 14.61C50.9358 14.87 50.2508 15 49.5108 15H46.4208ZM45.7458 15V4.68H46.8408V15H45.7458ZM56.0846 15V4.68H57.1796V15H56.0846ZM56.8046 15V13.995H62.8796V15H56.8046ZM56.8046 10.2V9.225H62.3996V10.2H56.8046ZM56.8046 5.685V4.68H62.7896V5.685H56.8046ZM66.6079 15V4.965H67.7179V15H66.6079ZM62.9779 5.685V4.68H71.3479V5.685H62.9779ZM70.1087 15L74.3387 4.68H75.1637L79.3487 15H78.1637L74.5187 5.88H74.9537L71.2787 15H70.1087ZM72.0437 12.315V11.34H77.4437V12.315H72.0437ZM80.363 15V4.68H81.458V15H80.363ZM83.3483 15V4.68H84.4433V15H83.3483ZM84.0683 15V13.995H89.7533V15H84.0683ZM93.2595 15V4.68H94.0395L98.4945 11.985H97.9395L102.394 4.68H103.174V15H102.064V6.6L102.319 6.66L98.5995 12.765H97.8195L94.0995 6.66L94.3545 6.6V15H93.2595ZM104.284 15L108.514 4.68H109.339L113.524 15H112.339L108.694 5.88H109.129L105.454 15H104.284ZM106.219 12.315V11.34H111.619V12.315H106.219ZM115.923 15V4.965H117.033V15H115.923ZM112.293 5.685V4.68H120.663V5.685H112.293ZM123.904 15V4.965H125.014V15H123.904ZM120.274 5.685V4.68H128.644V5.685H120.274ZM129.766 15V4.68H130.861V15H129.766ZM130.486 15V13.995H136.561V15H130.486ZM130.486 10.2V9.225H136.081V10.2H130.486ZM130.486 5.685V4.68H136.471V5.685H130.486ZM138.554 10.38V9.45H141.554C142.234 9.45 142.754 9.28 143.114 8.94C143.474 8.59 143.654 8.125 143.654 7.545C143.654 6.985 143.474 6.53 143.114 6.18C142.754 5.82 142.234 5.64 141.554 5.64H138.554V4.68H141.554C142.224 4.68 142.799 4.805 143.279 5.055C143.759 5.295 144.124 5.63 144.374 6.06C144.634 6.49 144.764 6.98 144.764 7.53C144.764 8.1 144.634 8.6 144.374 9.03C144.124 9.46 143.759 9.795 143.279 10.035C142.799 10.265 142.224 10.38 141.554 10.38H138.554ZM137.849 15V4.68H138.944V15H137.849ZM144.089 15L140.219 10.23L141.284 9.885L145.499 15H144.089ZM148.899 15.15C148.099 15.15 147.409 15 146.829 14.7C146.249 14.39 145.739 13.96 145.299 13.41L146.064 12.66C146.414 13.15 146.819 13.515 147.279 13.755C147.749 13.995 148.304 14.115 148.944 14.115C149.604 14.115 150.139 13.965 150.549 13.665C150.959 13.365 151.164 12.95 151.164 12.42C151.164 12.01 151.069 11.675 150.879 11.415C150.689 11.145 150.439 10.93 150.129 10.77C149.829 10.6 149.494 10.45 149.124 10.32C148.754 10.19 148.384 10.055 148.014 9.915C147.654 9.765 147.319 9.58 147.009 9.36C146.699 9.14 146.449 8.86 146.259 8.52C146.079 8.18 145.989 7.745 145.989 7.215C145.989 6.655 146.124 6.175 146.394 5.775C146.664 5.375 147.034 5.07 147.504 4.86C147.974 4.64 148.509 4.53 149.109 4.53C149.779 4.53 150.374 4.66 150.894 4.92C151.424 5.18 151.864 5.53 152.214 5.97L151.464 6.72C151.144 6.34 150.794 6.05 150.414 5.85C150.034 5.65 149.589 5.55 149.079 5.55C148.479 5.55 147.999 5.69 147.639 5.97C147.279 6.25 147.099 6.64 147.099 7.14C147.099 7.53 147.189 7.845 147.369 8.085C147.559 8.325 147.809 8.525 148.119 8.685C148.429 8.845 148.764 8.99 149.124 9.12C149.494 9.24 149.864 9.375 150.234 9.525C150.604 9.675 150.939 9.865 151.239 10.095C151.549 10.325 151.799 10.62 151.989 10.98C152.179 11.33 152.274 11.78 152.274 12.33C152.274 13.22 151.969 13.915 151.359 14.415C150.759 14.905 149.939 15.15 148.899 15.15Z" fill="white"/>
<path d="M1.32 19L1.32 29.32H2.415V19H1.32ZM2.04 19V20.005H8.115V19H2.04ZM2.04 23.8V24.775H7.635V23.8H2.04ZM2.04 28.315V29.32H8.025V28.315H2.04ZM12.5429 19L8.43293 29.32H9.63293L13.1879 20.215H12.7529L16.3379 29.32H17.5079L13.3679 19H12.5429ZM18.6286 19V29.32H19.7236V19H18.6286ZM19.3486 19V20.005H25.4236V19H19.3486ZM19.3486 23.8V24.775H24.9436V23.8H19.3486ZM19.3486 28.315V29.32H25.3336V28.315H19.3486ZM27.4166 23.62V24.55H30.4166C31.0966 24.55 31.6166 24.72 31.9766 25.06C32.3366 25.41 32.5166 25.875 32.5166 26.455C32.5166 27.015 32.3366 27.47 31.9766 27.82C31.6166 28.18 31.0966 28.36 30.4166 28.36H27.4166V29.32H30.4166C31.0866 29.32 31.6616 29.195 32.1416 28.945C32.6216 28.705 32.9866 28.37 33.2366 27.94C33.4966 27.51 33.6266 27.02 33.6266 26.47C33.6266 25.9 33.4966 25.4 33.2366 24.97C32.9866 24.54 32.6216 24.205 32.1416 23.965C31.6616 23.735 31.0866 23.62 30.4166 23.62H27.4166ZM26.7116 19V29.32H27.8066V19H26.7116ZM32.9516 19L29.0816 23.77L30.1466 24.115L34.3616 19H32.9516ZM37.8602 23.26L33.7652 29.32H35.0552L38.4602 24.235H37.9202L41.3552 29.32H42.6002L38.4752 23.26H37.8602ZM37.6352 19V24.055H38.7452V19H37.6352ZM46.4208 19V20.02H49.4508C50.2608 20.02 50.9758 20.195 51.5958 20.545C52.2158 20.905 52.7008 21.395 53.0508 22.015C53.4008 22.645 53.5758 23.365 53.5758 24.175C53.5758 24.985 53.4008 25.7 53.0508 26.32C52.7008 26.94 52.2158 27.425 51.5958 27.775C50.9758 28.135 50.2608 28.315 49.4508 28.315H46.4508V29.32H49.4808C50.2308 29.32 50.9208 29.19 51.5508 28.93C52.1908 28.68 52.7458 28.32 53.2158 27.85C53.6958 27.39 54.0658 26.845 54.3258 26.215C54.5858 25.595 54.7158 24.91 54.7158 24.16C54.7158 23.43 54.5858 22.75 54.3258 22.12C54.0658 21.49 53.7008 20.94 53.2308 20.47C52.7608 20.01 52.2058 19.65 51.5658 19.39C50.9358 19.13 50.2508 19 49.5108 19H46.4208ZM45.7458 19V29.32H46.8408V19H45.7458ZM56.0846 19V29.32H57.1796V19H56.0846ZM56.8046 19V20.005H62.8796V19H56.8046ZM56.8046 23.8V24.775H62.3996V23.8H56.8046ZM56.8046 28.315V29.32H62.7896V28.315H56.8046ZM66.6079 19V29.035H67.7179V19H66.6079ZM62.9779 28.315V29.32H71.3479V28.315H62.9779ZM70.1087 19L74.3387 29.32H75.1637L79.3487 19H78.1637L74.5187 28.12H74.9537L71.2787 19H70.1087ZM72.0437 21.685V22.66H77.4437V21.685H72.0437ZM80.363 19V29.32H81.458V19H80.363ZM83.3483 19V29.32H84.4433V19H83.3483ZM84.0683 19V20.005H89.7533V19H84.0683ZM93.2595 19V29.32H94.0395L98.4945 22.015H97.9395L102.394 29.32H103.174V19H102.064V27.4L102.319 27.34L98.5995 21.235H97.8195L94.0995 27.34L94.3545 27.4V19H93.2595ZM104.284 19L108.514 29.32H109.339L113.524 19H112.339L108.694 28.12H109.129L105.454 19H104.284ZM106.219 21.685V22.66H111.619V21.685H106.219ZM115.923 19V29.035H117.033V19H115.923ZM112.293 28.315V29.32H120.663V28.315H112.293ZM123.904 19V29.035H125.014V19H123.904ZM120.274 28.315V29.32H128.644V28.315H120.274ZM129.766 19V29.32H130.861V19H129.766ZM130.486 19V20.005H136.561V19H130.486ZM130.486 23.8V24.775H136.081V23.8H130.486ZM130.486 28.315V29.32H136.471V28.315H130.486ZM138.554 23.62V24.55H141.554C142.234 24.55 142.754 24.72 143.114 25.06C143.474 25.41 143.654 25.875 143.654 26.455C143.654 27.015 143.474 27.47 143.114 27.82C142.754 28.18 142.234 28.36 141.554 28.36H138.554V29.32H141.554C142.224 29.32 142.799 29.195 143.279 28.945C143.759 28.705 144.124 28.37 144.374 27.94C144.634 27.51 144.764 27.02 144.764 26.47C144.764 25.9 144.634 25.4 144.374 24.97C144.124 24.54 143.759 24.205 143.279 23.965C142.799 23.735 142.224 23.62 141.554 23.62H138.554ZM137.849 19V29.32H138.944V19H137.849ZM144.089 19L140.219 23.77L141.284 24.115L145.499 19H144.089ZM148.899 18.85C148.099 18.85 147.409 19 146.829 19.3C146.249 19.61 145.739 20.04 145.299 20.59L146.064 21.34C146.414 20.85 146.819 20.485 147.279 20.245C147.749 20.005 148.304 19.885 148.944 19.885C149.604 19.885 150.139 20.035 150.549 20.335C150.959 20.635 151.164 21.05 151.164 21.58C151.164 21.99 151.069 22.325 150.879 22.585C150.689 22.855 150.439 23.07 150.129 23.23C149.829 23.4 149.494 23.55 149.124 23.68C148.754 23.81 148.384 23.945 148.014 24.085C147.654 24.235 147.319 24.42 147.009 24.64C146.699 24.86 146.449 25.14 146.259 25.48C146.079 25.82 145.989 26.255 145.989 26.785C145.989 27.345 146.124 27.825 146.394 28.225C146.664 28.625 147.034 28.93 147.504 29.14C147.974 29.36 148.509 29.47 149.109 29.47C149.779 29.47 150.374 29.34 150.894 29.08C151.424 28.82 151.864 28.47 152.214 28.03L151.464 27.28C151.144 27.66 150.794 27.95 150.414 28.15C150.034 28.35 149.589 28.45 149.079 28.45C148.479 28.45 147.999 28.31 147.639 28.03C147.279 27.75 147.099 27.36 147.099 26.86C147.099 26.47 147.189 26.155 147.369 25.915C147.559 25.675 147.809 25.475 148.119 25.315C148.429 25.155 148.764 25.01 149.124 24.88C149.494 24.76 149.864 24.625 150.234 24.475C150.604 24.325 150.939 24.135 151.239 23.905C151.549 23.675 151.799 23.38 151.989 23.02C152.179 22.67 152.274 22.22 152.274 21.67C152.274 20.78 151.969 20.085 151.359 19.585C150.759 19.095 149.939 18.85 148.899 18.85Z" fill="white"/>
</svg>
